<svg version="1.1" xmlns="http://www.w3.org/2000/svg" xmlns:xlink="http://www.w3.org/1999/xlink" width="942" height="670"><defs/><g><g/><g/><g/><g/><g/><g/><g/><g/><g/><g><rect fill="white" stroke="none" x="0" y="0" width="942" height="670"/></g><g><text fill="black" stroke="none" font-family="sans-serif" font-size="18pt" font-style="normal" font-weight="normal" text-decoration="normal" x="377.3754838311667" y="26.3876361" text-anchor="start" dominant-baseline="alphabetic">Virtual Instrument</text></g><g/><g><path fill="none" stroke="black" paint-order="fill stroke markers" d=" M 25.6865037 138.798965886 L 25.6865037 670.070039366" stroke-miterlimit="10" stroke-width="1.4659797833333332" stroke-dasharray="13.532121076923076,5.863919133333333"/><path fill="none" stroke="black" paint-order="fill stroke markers" d=" M 132.88492666666667 138.798965886 L 132.88492666666667 670.070039366" stroke-miterlimit="10" stroke-width="1.4659797833333332" stroke-dasharray="13.532121076923076,5.863919133333333"/><path fill="none" stroke="black" paint-order="fill stroke markers" d=" M 450.92028343333334 138.798965886 L 450.92028343333334 670.070039366" stroke-miterlimit="10" stroke-width="1.4659797833333332" stroke-dasharray="13.532121076923076,5.863919133333333"/><path fill="none" stroke="black" paint-order="fill stroke markers" d=" M 580.5269490000001 138.798965886 L 580.5269490000001 670.070039366" stroke-miterlimit="10" stroke-width="1.4659797833333332" stroke-dasharray="13.532121076923076,5.863919133333333"/><path fill="none" stroke="black" paint-order="fill stroke markers" d=" M 668.4857360000001 138.798965886 L 668.4857360000001 670.070039366" stroke-miterlimit="10" stroke-width="1.4659797833333332" stroke-dasharray="13.532121076923076,5.863919133333333"/><path fill="none" stroke="black" paint-order="fill stroke markers" d=" M 785.7191587290001 138.798965886 L 785.7191587290001 670.070039366" stroke-miterlimit="10" stroke-width="1.4659797833333332" stroke-dasharray="13.532121076923076,5.863919133333333"/></g><g><g><path fill="white" stroke="black" paint-order="fill stroke markers" d=" M 35.713805418 64.385832084 A 10.027301717999999 10.027301717999999 0 1 1 35.713800404349556 64.37580478395321 M 25.6865037 74.41313380199999 L 25.6865037 95.87507782999998 M 13.020438372000001 82.153507058 L 38.352569028 82.153507058 M 25.6865037 95.87507782999998 L 13.020438372000001 115.92968126599999 M 25.6865037 95.87507782999998 L 38.352569028 115.92968126599999" stroke-miterlimit="10" stroke-width="2.990598758" stroke-dasharray=""/></g><g><g/><text fill="black" stroke="none" font-family="sans-serif" font-size="12pt" font-style="normal" font-weight="normal" text-decoration="normal" x="8.7958787" y="133.521438666" text-anchor="start" dominant-baseline="alphabetic">User</text></g><path fill="none" stroke="none"/><g><path fill="lightblue" stroke="black" paint-order="fill stroke markers" d=" M 98.23536988766668 91.301220906 L 167.5344834456667 91.301220906 L 167.5344834456667 138.798965886 L 98.23536988766668 138.798965886 L 98.23536988766668 91.301220906 Z" stroke-miterlimit="10" stroke-width="2.814681184" stroke-dasharray=""/></g><g><g/><text fill="black" stroke="none" font-family="sans-serif" font-size="12pt" font-style="normal" font-weight="normal" text-decoration="normal" x="117.32242666666667" y="121.207208486" text-anchor="start" dominant-baseline="alphabetic">Play</text></g><path fill="none" stroke="none"/><g><path fill="lightblue" stroke="black" paint-order="fill stroke markers" d=" M 374.4621329043333 91.301220906 L 527.3784339623334 91.301220906 L 527.3784339623334 138.798965886 L 374.4621329043333 138.798965886 L 374.4621329043333 91.301220906 Z" stroke-miterlimit="10" stroke-width="2.814681184" stroke-dasharray=""/></g><g><g/><text fill="black" stroke="none" font-family="sans-serif" font-size="12pt" font-style="normal" font-weight="normal" text-decoration="normal" x="393.54918968333334" y="121.207208486" text-anchor="start" dominant-baseline="alphabetic">PlaybackEngine</text></g><g><path fill="white" stroke="black" paint-order="fill stroke markers" d=" M 554.8429831960001 104.31912138199999 L 554.8429831960001 67.37643084199999 L 606.210914804 67.37643084199999 L 606.210914804 104.31912138199999" stroke-miterlimit="10" stroke-width="2.990598758" stroke-dasharray=""/><path fill="white" stroke="black" paint-order="fill stroke markers" d=" M 606.210914804 66.0922325518 L 606.2096306164115 66.20833621555636 L 606.2057781820635 66.3244282690431 L 606.1993578861961 66.4404971031516 L 606.1903703708338 66.5565311110952 L 606.1788165347205 66.67251868956978 L 606.1646975332302 66.78844823991415 L 606.1480147782513 66.9043081692699 L 606.1287699380454 67.0200868917406 L 606.1069649370804 67.13577282955055 L 606.0826019558384 67.25135441420231 L 606.0556834305971 67.36682008763378 L 606.0262120531867 67.48215830337381 L 605.9941907707201 67.59735752769696 L 605.9596227852992 67.71240624077679 L 605.9225115536935 67.82729293783784 L 605.8828607869955 67.94200613030618 L 605.8406744502486 68.05653434695814 L 605.7959567620512 68.1708661350675 L 605.7487121941352 68.28499006155073 L 605.6989454709178 68.39889471411026 L 605.6466615690299 68.51256870237577 L 605.5918657168181 68.62600065904317 L 605.534563393822 68.73917924101131 L 605.4747603302262 68.85209313051632 L 605.412462506287 68.96473103626333 L 605.3476761517352 69.07708169455563 L 605.280407745152 69.18913387042103 L 605.2106640133221 69.3008763587353 L 605.1384519305606 69.41229798534273 L 605.0637787180156 69.52338760817354 L 604.986651842946 69.63413411835798 L 604.9070790179751 69.74452644133734 L 604.8250682003192 69.85455353797133 L 604.7406275909916 69.96420440564195 L 604.6537656339829 70.07346807935382 L 604.5644910154164 70.18233363283062 L 604.4728126626795 70.29079017960771 L 604.3787397435312 70.39882687412083 L 604.2822816651851 70.50643291279052 L 604.1834480733684 70.6135975351026 L 604.082248851358 70.72031002468414 L 603.9786941189919 70.82655971037511 L 603.872794231657 70.93233596729549 L 603.7645597792538 71.03762821790771 L 603.654001585137 71.14242593307448 L 603.5411307050344 71.2467186331116 L 603.4259584259397 71.35049588883598 L 603.3084962649848 71.45374732260854 L 603.188755968288 71.55646260937192 L 603.0667495097791 71.65863147768304 L 602.9424890900024 71.76024371074024 L 602.8159871348961 71.86128914740488 L 602.6872562945506 71.96175768321748 L 602.5563094419424 72.0616392714082 L 602.4231596716478 72.16092392390144 L 602.2878202985329 72.25960171231469 L 602.150304856422 72.35766276895136 L 602.0106270967449 72.45509728778748 L 601.8688009871612 72.55189552545237 L 601.7248407101636 72.64804780220294 L 601.5787606616598 72.74354450289161 L 601.4305754495329 72.83837607792793 L 601.2802998921807 72.93253304423341 L 601.1279490170336 73.02600598618986 L 600.9735380590524 73.118785556581 L 600.817082459204 73.21086247752712 L 600.6585978629181 73.30222754141282 L 600.4981001185222 73.39287161180788 L 600.335605275657 73.48278562438078 L 600.1711295836714 73.5719605878052 L 600.0046894899975 73.66038758465909 L 599.836301638506 73.74805777231649 L 599.6659828678419 73.83496238383165 L 599.4937502097399 73.92109272881588 L 599.3196208873227 74.00644019430642 L 599.1436123133773 74.09099624562788 L 598.9657420886142 74.17475242724555 L 598.786027999908 74.2577003636111 L 598.6044880185177 74.33983176 L 598.42114029829 74.42113840334106 L 598.2360031738443 74.50161216303769 L 598.0490951587387 74.58124499178099 L 597.860434943619 74.66002892635444 L 597.6700413943494 74.73795608843025 L 597.4779335501263 74.81501868535715 L 597.2841306215739 74.89120901093965 L 597.0886519888236 74.9665194462087 L 596.8915171995759 75.0409424601835 L 596.6927459671452 75.11447061062472 L 596.4923581684893 75.18709654477856 L 596.290373842221 75.25881300011211 L 596.0868131866047 75.32961280503964 L 595.8816965575362 75.39948887963963 L 595.6750444665074 75.46843423636287 L 595.4668775785555 75.53644198073111 L 595.2572167101956 75.60350531202661 L 595.0460828273398 75.66961752397214 L 594.8334970432005 75.73477200540155 L 594.6194806161791 75.79896224092104 L 594.4040549477397 75.86218181156053 L 594.1872415802698 75.92442439541566 L 593.9690621949253 75.98568376827987 L 593.7495386094631 76.04595380426694 L 593.5286927760588 76.10522847642352 L 593.3065467791116 76.16350185733178 L 593.0831228330361 76.22076811970217 L 592.8584432800408 76.27702153695618 L 592.6325305878936 76.33225648379899 L 592.4054073476757 76.38646743678191 L 592.1770962715216 76.43964897485485 L 591.9476201903489 76.49179577990829 L 591.7170020515741 76.54290263730519 L 591.4852649168195 76.59296443640241 L 591.2524319596049 76.64197617106174 L 591.0185264630322 76.68993294015058 L 590.7835718174562 76.73682994803197 L 590.5475915181456 76.7826625050442 L 590.3106091629337 76.82742602796976 L 590.0726484498585 76.87111604049369 L 589.8337331747931 76.91372817365111 L 589.5938872290659 76.95525816626423 L 589.3531345970714 76.99570186536839 L 589.1114993538724 77.03505522662739 L 588.8690056627918 77.0733143147379 L 588.6256777729966 77.11047530382298 L 588.381540017073 77.1465344778147 L 588.1366168085932 77.1814882308257 L 587.8909326396739 77.21533306750982 L 587.6445120785272 77.24806560341159 L 587.3973797670039 77.2796825653047 L 587.1495604181295 77.31018079151929 L 586.9010788136318 77.33955723225817 L 586.6519598014646 77.36780894990176 L 586.4022282933215 77.3949331193018 L 586.1519092621451 77.42092702806399 L 585.9010277396299 77.44578807681908 L 585.649608813719 77.46951377948295 L 585.3976776260957 77.49210176350509 L 585.1452593696688 77.51354977010593 L 584.8923792860534 77.53385565450264 L 584.6390626630473 77.55301738612376 L 584.3853348321016 77.57103304881205 L 584.131221165788 77.58790084101629 L 583.8767470752614 77.6036190759713 L 583.6219380077188 77.61818618186668 L 583.3668194438545 77.63160070200398 L 583.1114168953125 77.64386129494237 L 582.8557559021344 77.65496673463277 L 582.5998620302071 77.66491591054046 L 582.343760868704 77.67370782775615 L 582.087478027528 77.68134160709545 L 581.8310391347497 77.68781648518677 L 581.5744698340449 77.6931318145477 L 581.3177957821293 77.69728706364975 L 581.0610426461948 77.70028181697145 L 580.8042361013405 77.70211577504 L 580.5474018280073 77.70278875446107 L 580.2905655094083 77.70230068793732 L 580.0337528289614 77.70065162427498 L 579.7769894677206 77.69784172837903 L 579.5203011018081 77.69387128123674 L 579.2637133998464 77.68874067988952 L 579.0072520203921 77.68245043739319 L 578.7509426093694 77.6750011827668 L 578.4948107975058 77.66639366092959 L 578.2388821977689 77.65662873262656 L 577.9831824028056 77.64570737434241 L 577.7277369823821 77.63363067820387 L 577.4725714808278 77.6203998518705 L 577.21771141448 77.60601621841388 L 576.9631822691332 77.59048121618541 L 576.7090094974897 77.57379639867233 L 576.4552185166148 77.5559634343425 L 576.2018347053951 77.53698410647749 L 575.9488834020005 77.51686031299428 L 575.6963899013509 77.49559406625544 L 575.4443794525856 77.47318749286792 L 575.1928772565395 77.44964283347039 L 574.9419084632228 77.42496244250918 L 574.6914981693056 77.3991487880028 L 574.4416714156085 77.3722044512952 L 574.192453184599 77.3441321267976 L 573.9438683978922 77.31493462171906 L 573.6959419137596 77.28461485578573 L 573.4486985246433 77.25317586094897 L 573.2021629546759 77.22062078108203 L 572.9563598572092 77.18695287166581 L 572.711313812348 77.15217549946317 L 572.4670493244923 77.11629214218235 L 572.2235908198878 77.07930638812917 L 571.9809626441819 77.04122193584823 L 571.7391890599898 77.002042593753 L 571.4982942444686 76.96177227974506 L 571.2583022868993 76.92041502082225 L 571.0192371862772 76.87797495267598 L 570.7811228489136 76.83445631927773 L 570.5439830860436 76.78986347245454 L 570.3078416114458 76.74420087145396 L 570.072722039071 76.69747308249802 L 569.8386478806805 76.64968477832667 L 569.6056425434949 76.60084073773052 L 569.3737293278541 76.55094584507293 L 569.142931424886 76.50000508980158 L 568.913271914189 76.44802356594954 L 568.6847737615224 76.39500647162588 L 568.4574598165111 76.34095910849587 L 568.2313528103604 76.28588688125075 L 568.0064753535823 76.22979529706737 L 567.7828499337353 76.1726899650574 L 567.5604989131747 76.11457659570647 L 567.3394445268176 76.05546100030305 L 567.1197088799181 75.99534909035746 L 566.9013139458581 75.9342468770106 L 566.6842815639487 75.87216047043285 L 566.4686334372475 75.80909607921315 L 566.2543911303874 75.74506000973807 L 566.0415760674205 75.6800586655612 L 565.8302095296756 75.61409854676278 L 565.6203126536305 75.54718624929971 L 565.411906428798 75.47932846434601 L 565.2050116956268 75.4105319776236 L 564.9996491434177 75.34080366872384 L 564.7958393082549 75.2701505104195 L 564.5936025709522 75.19857956796754 L 564.3929591550145 75.12609799840256 L 564.1939291246164 75.05271304982111 L 563.9965323825951 74.9784320606569 L 563.8007886684601 74.90326245894695 L 563.60671755642 74.82721176158879 L 563.414338453424 74.75028757358876 L 563.2236705972222 74.67249758730159 L 563.0347330544414 74.59384958166106 L 562.8475447186783 74.51435142140221 L 562.6621243086105 74.4340110562748 L 562.4784903661246 74.3528365202484 L 562.2966612544617 74.27083593070897 L 562.1166551563815 74.18801748764713 L 561.9384900723439 74.10438947283818 L 561.7621838187086 74.01996024901389 L 561.5877540259544 73.9347382590263 L 561.4152181369147 73.84873202500339 L 561.2445934050352 73.76195014749688 L 561.0758968926465 73.67440130462221 L 560.9091454692593 73.58609425119072 L 560.7443558098771 73.49703781783415 L 560.5815443933285 73.40724091012163 L 560.4207275006195 73.3167125076691 L 560.2619212133052 73.22546166324135 L 560.1051414118822 73.1334975018468 L 559.9504037741998 73.04082921982494 L 559.797723773893 72.94746608392677 L 559.6471166788344 72.85341743038806 L 559.4985975496083 72.75869266399579 L 559.3521812380036 72.66330125714767 L 559.2078823855295 72.56725274890488 L 559.0657154219509 72.4705567440382 L 558.9256945638459 72.37322291206758 L 558.7878338131836 72.27526098629505 L 558.6521469559241 72.17668076283158 L 558.51864756064 72.07749209961737 L 558.3873489771596 71.97770491543608 L 558.258264335232 71.87732918892296 L 558.1314065432136 71.77637495756703 L 558.006788286778 71.6748523167073 L 557.8844220276471 71.57277141852325 L 557.7643200023447 71.47014247101961 L 557.6464942209732 71.36697573700563 L 557.5309564660126 71.26328153306875 L 557.4177182911421 71.15907022854292 L 557.306791020085 71.05435224447177 L 557.1981857454757 70.94913805256644 L 557.0919133277514 70.84343817415844 L 556.987984394065 70.73726317914753 L 556.8864093372237 70.63062368494474 L 556.7871983146482 70.5235303554106 L 556.690361247358 70.41599389978884 L 556.5959078189795 70.3080250716354 L 556.5038474747766 70.19963466774314 L 556.4141894207071 70.0908335270621 L 556.3269426225015 69.98163252961568 L 556.2421158047672 69.87204259541265 L 556.159717450115 69.76207468335508 L 556.0797557983118 69.65173979014256 L 556.0022388454563 69.54104894917243 L 555.927174343179 69.43001322943658 L 555.8545697978676 69.31864373441445 L 555.7844324699163 69.20695160096271 L 555.7167693729991 69.09494799820165 L 555.6515872733697 68.98264412639821 L 555.5888926891835 68.87005121584596 L 555.5286918898468 68.75718052574217 L 555.4709908953891 68.64404334306175 L 555.4157954758622 68.53065098142872 L 555.3631111507617 68.41701477998473 L 555.3129431884764 68.30314610225523 L 555.2652966057606 68.1890563350131 L 555.2201761672329 68.07475688714001 L 555.1775863848997 67.96025918848548 L 555.1375315177035 67.84557468872397 L 555.1000155710977 67.73071485620987 L 555.0650422966459 67.61569117683074 L 555.0326151916461 67.50051515285864 L 555.0027374987819 67.3851983018 L 554.9754122057979 67.26975215524384 L 554.9506420452003 67.15418825770858 L 554.9284294939847 67.0385181654877 L 554.9087767733877 66.92275344549402 L 554.891685848665 66.80690567410306 L 554.8771584288947 66.69098643599544 L 554.8651959668068 66.57500732299836 L 554.8557996586375 66.45897993292647 L 554.8489704440098 66.34291586842208 L 554.8447090058394 66.22682673579494 L 554.8430157702666 66.11072414386156 L 554.8438909066135 65.99461970278438 L 554.8473343273674 65.87852502291076 L 554.8533456881889 65.76245171361194 L 554.861924387947 65.64641138212212 L 554.8730695687789 65.53041563237775 L 554.8867801161757 65.41447606385715 L 554.9030546590942 65.29860427042055 L 554.9218915700936 65.18281183915073 L 554.9432889654985 65.06711034919432 L 554.9672447055872 64.95151137060391 L 554.9937563948057 64.83602646318103 L 555.022821382007 64.72066717532017 L 555.0544367607168 64.60544504285399 L 555.0885993694236 64.49037158789972 L 555.1253057918948 64.37545831770696 L 555.1645523575189 64.26071672350696 L 555.206335141672 64.14615827936355 L 555.2506499661104 64.03179444102564 L 555.2974923993887 63.917636644781794 L 555.3468577573026 63.80369630631649 L 555.3987411033575 63.68998481956863 L 555.4531372492619 63.57651355559212 L 555.5100407554465 63.46329386141881 L 555.5694459316084 63.35033705892376 L 555.6313468372792 63.237654443693096 L 555.6957372824199 63.125257283894435 L 555.7626108280399 63.0131568191501 L 555.8319607868402 62.90136425941313 L 555.9037802238827 62.78989078384635 L 555.9780619572836 62.67874753970443 L 556.0547985589313 62.56794564121916 L 556.1339823552299 62.45749616848805 L 556.2156054278655 62.34741016636633 L 556.2996596145989 62.23769864336248 L 556.3861365100815 62.12837257053737 L 556.4750274666959 62.01944288040719 L 556.5663235954203 61.91092046585016 L 556.6600157667181 61.80281617901732 L 556.7560946114502 61.69514083024725 L 556.8545505218121 61.587905186985104 L 556.955373652295 61.48111997270585 L 557.0585539206697 61.37479586584192 L 557.1640810089954 61.2689434987154 L 557.2719443646512 61.16357345647479 L 557.3821332013914 61.05869627603652 L 557.4946365004242 60.954322445031224 L 557.6094430115135 60.85046240075503 L 557.7265412541037 60.74712652912581 L 557.8459195184683 60.644325163644616 L 557.9675658668802 60.54206858436233 L 558.091468134806 60.440367016851674 L 558.2176139321222 60.339230631184634 L 558.3459906443541 60.2386695409155 L 558.4765854339374 60.13869380206951 L 558.6093852415021 60.03931341213722 L 558.7443767871781 59.94053830907482 L 558.8815465719233 59.84237837031029 L 559.0208808788736 59.74484341175572 L 559.1623657747143 59.64794318682568 L 559.3059871110738 59.55168738546191 L 559.451730525938 59.45608563316434 L 559.5995814450871 59.361147490028536 L 559.7495250835523 59.266882449789684 L 559.9015464470946 59.173299938873264 L 560.0556303337044 59.08040931545237 L 560.2117613351214 58.988219868511955 L 560.3699238383758 58.89674081691987 L 560.5301020273488 58.805981308505054 L 560.6922798843551 58.715950419142715 L 560.8564411917441 58.62665715184676 L 561.0225695335218 58.5381104358695 L 561.1906482969928 58.450319125808754 L 561.3606606744204 58.36329200072237 L 561.5325896647087 58.277037763250334 L 561.706418075102 58.19156503874451 L 561.882128522904 58.10688237440612 L 562.0597034372165 58.022998238431036 L 562.2391250606959 57.93992101916295 L 562.4203754513295 57.85765902425456 L 562.6034364842291 57.776220479836795 L 562.7882898534441 57.695613529696246 L 562.9749170737916 57.61584623446075 L 563.1632994827052 57.53692657079335 L 563.3534182421007 57.45886243059466 L 563.5452543402608 57.38166162021363 L 563.7387885937355 57.30533185966698 L 563.9340016492608 57.229880781867145 L 564.1308739856937 57.155315931859036 L 564.3293859159647 57.08164476606552 L 564.5295175890462 57.008874651541774 L 564.7312489919376 56.93701286523862 L 564.9345599516669 56.866066593274795 L 565.1394301373073 56.79604293021838 L 565.345839062011 56.726948878377314 L 565.5537660850578 56.658791347099225 L 565.7631904139183 56.591577152080426 L 565.9740911063344 56.525313014684414 L 566.1864470724126 56.4600055612697 L 566.4002370767331 56.39566132252722 L 566.6154397404738 56.332286732827214 L 566.8320335435475 56.26988812957585 L 567.0499968267544 56.20847175258143 L 567.2693077939479 56.14804374343051 L 567.489944514214 56.08861014487363 L 567.7118849240646 56.03017690022111 L 567.9351068296436 55.972749852748734 L 568.1595879089464 55.91633474511339 L 568.3853057140523 55.86093721877882 L 568.6122376733687 55.80656281345151 L 568.8403610938889 55.753216966526665 L 569.069653163461 55.70090501254454 L 569.3000909530689 55.649632182656916 L 569.5316514191259 55.59940360410408 L 569.7643114057782 55.550224299702016 L 569.9980476472211 55.50209918734018 L 570.2328367700253 55.45503307948971 L 570.4686552954742 55.40903068272217 L 570.7054796419114 55.3640965972389 L 570.9432861271 55.320235316411 L 571.1820509705896 55.27745122633 L 571.4217502960947 55.23574860536927 L 571.6623601338825 55.19513162375613 L 571.9038564231698 55.15560434315492 L 572.1462150145289 55.11717071626074 L 572.3894116723027 55.07983458640426 L 572.633422077028 55.04359968716735 L 572.8782218278676 55.00846964200974 L 573.1237864450505 54.974447963906684 L 573.3700913723196 54.941538054997615 L 573.6171119793876 54.90974320624601 L 573.8648235643993 54.87906659711026 L 574.1132013564029 54.849511295225696 L 574.362220517826 54.82108025609789 L 574.6118561469601 54.79377632280706 L 574.8620832804503 54.76760222572378 L 575.1128768957918 54.742560582235946 L 575.3642119138319 54.71865389648704 L 575.6160632012784 54.695884559125716 L 575.8684055732124 54.674254847066734 L 576.121213795607 54.65376692326327 L 576.3744625878505 54.63442283649064 L 576.628126625275 54.616224521141405 L 576.8821805416878 54.599173797031916 L 577.1365989319091 54.583272369220396 L 577.391356354312 54.56852182783636 L 577.6464273333665 54.55492364792166 L 577.9017863621873 54.54247918928296 L 578.1574079050841 54.53118969635575 L 578.413266400116 54.52105629807991 L 578.6693362616463 54.51208000778683 L 578.9255918829025 54.504261723098054 L 579.1820076385359 54.497602225835536 L 579.4385578871847 54.49210218194346 L 579.6952169740379 54.487762141421626 L 579.9519592334004 54.484582538270466 L 580.2087589912604 54.482563690447655 L 580.4655905678562 54.481705799836284 L 580.7224282802441 54.4820089522247 L 580.9792464448669 54.48347311729792 L 581.2360193801221 54.486098148640664 L 581.4927214089302 54.48988378375197 L 581.7493268613022 54.49482964407149 L 582.0058100769066 54.50093523501731 L 582.2621454076358 54.50819994603543 L 582.5183072201702 54.5166230506608 L 582.7742698985421 54.52620370658997 L 583.0300078466969 54.53694095576534 L 583.2854954910528 54.54883372447093 L 583.5407072830584 54.56188082343979 L 583.7956177017472 54.5760809479729 L 584.0502012562897 54.591432678069616 L 584.3044324885426 54.607934478569746 L 584.5582859755946 54.62558469930698 L 584.8117363323084 54.644381575273954 L 585.0647582138596 54.66432322679874 L 585.317326318271 54.685407659732796 L 585.5694153889425 54.70763276565041 L 585.8210002171771 54.7309963220595 L 586.0720556447017 54.75549599262389 L 586.3225565661827 54.78112932739696 L 586.5724779317368 54.80789376306658 L 586.8217947494356 54.83578662321149 L 587.0704820878052 54.86480511856891 L 587.3185150783189 54.89494634731351 L 587.5658689178845 54.9262072953475 L 587.812518871324 54.95858483660216 L 588.0584402738475 54.99207573335032 L 588.30360853352 55.02667663653023 L 588.5479991337197 55.0623840860804 L 588.7915876355901 55.09919451128564 L 589.0343496804842 55.13710423113409 L 589.2762609923997 55.17610945468536 L 589.517297380407 55.2162062814496 L 589.7574347410682 55.25739070177756 L 589.9966490608474 55.29965859726151 L 590.2349164185118 55.34300574114714 L 590.4722129875244 55.38742779875617 L 590.7085150384258 55.43292032791987 L 590.9437989412081 55.47947877942322 L 591.178041167677 55.527098497459875 L 591.411218293805 55.57577472009772 L 591.6433070020737 55.62550257975505 L 591.8742840838058 55.67627710368733 L 592.1041264414856 55.728093214484495 L 592.332811091069 55.78094573057864 L 592.5603151642813 55.83482936676219 L 592.7866159109051 55.88973873471644 L 593.011690701054 55.945668343550345 L 593.2355170274369 56.002612600349636 L 593.4580725076074 56.06056581073608 L 593.679334886203 56.11952217943694 L 593.8992820371703 56.179475810864474 L 594.1178919659775 56.24042070970549 L 594.3351428118139 56.30235078152091 L 594.5510128497757 56.36525983335514 L 594.7654804930394 56.42914157435544 L 594.978524295019 56.49398961640093 L 595.1901229515122 56.55979747474145 L 595.4002553028296 56.62655856864601 L 595.6089003359109 56.69426622206085 L 595.8160371864269 56.76291366427705 L 596.0216451408652 56.83249403060759 L 596.2257036386015 56.903000363073836 L 596.4281922739564 56.97442561110128 L 596.6290907982348 57.04676263222465 L 596.8283791217517 57.120004192802114 L 597.026037315841 57.19414296873864 L 597.2220456148478 57.26917154621842 L 597.4163844181057 57.34508242244624 L 597.6090342918964 57.421868006397716 L 597.7999759713928 57.49952061957846 L 597.9891903625862 57.57803249679186 L 598.1766585441951 57.657395786915615 L 598.3623617695578 57.73760255368685 L 598.5462814685062 57.81864477649573 L 598.7283992492239 57.9005143511875 L 598.9086969000845 57.983203090872934 L 599.0871563914731 58.06670272674695 L 599.2637598775893 58.15100490891555 L 599.4384896982317 58.23610120723078 L 599.6113283805639 58.32198311213371 L 599.7822586408618 58.40864203550541 L 599.9512633862414 58.49606931152578 L 600.1183257163693 58.58425619754006 L 600.2834289251517 58.67319387493313 L 600.4465565024053 58.76287345001139 L 600.6076921355083 58.853285954892044 L 600.7668197110315 58.944422348399954 L 600.9239233163503 59.03627351697172 L 601.0789872412347 59.12883027556701 L 601.2319959794218 59.222083368587114 L 601.3829342301649 59.31602347080043 L 601.531786899765 59.41064118827504 L 601.6785391030792 59.50592705931801 L 601.8231761650092 59.60187155542167 L 601.9656836219696 59.698465082216345 L 602.1060472233332 59.79569798042986 L 602.2442529328572 59.89356052685341 L 602.3802869300855 59.99204293531392 L 602.5141356117318 60.0911353576526 L 602.6457855930396 60.1908278847098 L 602.7752237091204 60.29111054731588 L 602.9024370162705 60.39197331728817 L 603.0274127932651 60.4934061084337 L 603.1501385426307 60.5953987775579 L 603.2706019918945 60.69794112547884 L 603.3887910948123 60.80102289804719 L 603.5046940325719 60.90463378717158 L 603.6182992149764 61.00876343184945 L 603.7295952816022 61.113401419203115 L 603.8385711029352 61.218537285521016 L 603.9452157814843 61.32416051730415 L 604.0495186528703 61.43026055231736 L 604.1514692868932 61.53682678064554 L 604.2510574885744 61.643848545754686 L 604.3482732991766 61.75131514555746 L 604.4431069972002 61.85921583348345 L 604.535549099354 61.96753981955375 L 604.6255903615049 62.07627627146005 L 604.7132217796019 62.18541431564777 L 604.7984345905761 62.29494303840343 L 604.8812202732173 62.404851486946036 L 604.9615705490264 62.515128670522316 L 605.0394773830427 62.62576356150581 L 605.1149329846478 62.736745096499625 L 605.1879298083443 62.84806217744274 L 605.2584605545107 62.959703672719826 L 605.3265181701313 63.07165841827438 L 605.392095849501 63.18391521872516 L 605.4551870349067 63.29646284848565 L 605.5157854172822 63.409290052886675 L 605.5738849368402 63.52238554930181 L 605.6294797836767 63.63573802827567 L 605.6825643983536 63.7493361546548 L 605.7331334724536 63.86316856872124 L 605.7811819491114 63.97722388732845 L 605.8267050235195 64.09149070503959 L 605.8696981434083 64.20595759526815 L 605.9101570095016 64.32061311142046 L 605.9480775759466 64.43544578804045 L 605.9834560507181 64.55044414195618 L 606.0162888959984 64.66559667342807 L 606.04657282853 64.78089186729893 L 606.074304819945 64.89631819414548 L 606.0994820970675 65.0118641114312 L 606.1221021421907 65.12751806466063 L 606.1421626933287 65.24326848853487 L 606.1596617444435 65.35910380810796 L 606.1745975456444 65.47501243994449 L 606.1869686033635 65.59098279327785 L 606.1967736805058 65.70700327116936 L 606.2040117965713 65.8230622716679 L 606.2086822277547 65.93914818897015 L 606.2107845070167 66.05524941458111 M 606.210914804 103.0349230918 L 606.2096306164115 103.15102675555636 L 606.2057781820635 103.2671188090431 L 606.1993578861961 103.3831876431516 L 606.1903703708338 103.4992216510952 L 606.1788165347205 103.61520922956979 L 606.1646975332302 103.73113877991415 L 606.1480147782513 103.8469987092699 L 606.1287699380454 103.9627774317406 L 606.1069649370804 104.07846336955055 L 606.0826019558384 104.19404495420231 L 606.0556834305971 104.30951062763378 L 606.0262120531867 104.42484884337381 L 605.9941907707201 104.54004806769696 L 605.9596227852992 104.65509678077679 L 605.9225115536935 104.76998347783784 L 605.8828607869955 104.88469667030618 L 605.8406744502486 104.99922488695815 L 605.7959567620512 105.1135566750675 L 605.7487121941352 105.22768060155073 L 605.6989454709178 105.34158525411026 L 605.6466615690299 105.45525924237577 L 605.5918657168181 105.56869119904317 L 605.534563393822 105.68186978101132 L 605.4747603302262 105.79478367051632 L 605.412462506287 105.90742157626333 L 605.3476761517352 106.01977223455563 L 605.280407745152 106.13182441042103 L 605.2106640133221 106.2435668987353 L 605.1384519305606 106.35498852534273 L 605.0637787180156 106.46607814817354 L 604.986651842946 106.57682465835798 L 604.9070790179751 106.68721698133734 L 604.8250682003192 106.79724407797133 L 604.7406275909916 106.90689494564195 L 604.6537656339829 107.01615861935382 L 604.5644910154164 107.12502417283062 L 604.4728126626795 107.23348071960771 L 604.3787397435312 107.34151741412083 L 604.2822816651851 107.44912345279052 L 604.1834480733684 107.5562880751026 L 604.082248851358 107.66300056468414 L 603.9786941189919 107.76925025037511 L 603.872794231657 107.87502650729549 L 603.7645597792538 107.98031875790771 L 603.654001585137 108.08511647307448 L 603.5411307050344 108.1894091731116 L 603.4259584259397 108.29318642883598 L 603.3084962649848 108.39643786260854 L 603.188755968288 108.49915314937192 L 603.0667495097791 108.60132201768305 L 602.9424890900024 108.70293425074024 L 602.8159871348961 108.80397968740488 L 602.6872562945506 108.90444822321749 L 602.5563094419424 109.0043298114082 L 602.4231596716478 109.10361446390144 L 602.2878202985329 109.20229225231469 L 602.150304856422 109.30035330895136 L 602.0106270967449 109.39778782778748 L 601.8688009871612 109.49458606545237 L 601.7248407101636 109.59073834220294 L 601.5787606616598 109.68623504289161 L 601.4305754495329 109.78106661792793 L 601.2802998921807 109.87522358423341 L 601.1279490170336 109.96869652618986 L 600.9735380590524 110.061476096581 L 600.817082459204 110.15355301752712 L 600.6585978629181 110.24491808141282 L 600.4981001185222 110.33556215180788 L 600.335605275657 110.42547616438078 L 600.1711295836714 110.5146511278052 L 600.0046894899975 110.60307812465909 L 599.836301638506 110.69074831231649 L 599.6659828678419 110.77765292383165 L 599.4937502097399 110.86378326881588 L 599.3196208873227 110.94913073430642 L 599.1436123133773 111.03368678562788 L 598.9657420886142 111.11744296724555 L 598.786027999908 111.2003909036111 L 598.6044880185177 111.2825223 L 598.42114029829 111.36382894334106 L 598.2360031738443 111.44430270303769 L 598.0490951587387 111.52393553178099 L 597.860434943619 111.60271946635444 L 597.6700413943494 111.68064662843025 L 597.4779335501263 111.75770922535715 L 597.2841306215739 111.83389955093965 L 597.0886519888236 111.9092099862087 L 596.8915171995759 111.9836330001835 L 596.6927459671452 112.05716115062472 L 596.4923581684893 112.12978708477856 L 596.290373842221 112.20150354011211 L 596.0868131866047 112.27230334503965 L 595.8816965575362 112.34217941963963 L 595.6750444665074 112.41112477636287 L 595.4668775785555 112.47913252073111 L 595.2572167101956 112.54619585202661 L 595.0460828273398 112.61230806397214 L 594.8334970432005 112.67746254540155 L 594.6194806161791 112.74165278092104 L 594.4040549477397 112.80487235156053 L 594.1872415802698 112.86711493541566 L 593.9690621949253 112.92837430827987 L 593.7495386094631 112.98864434426694 L 593.5286927760588 113.04791901642352 L 593.3065467791116 113.10619239733178 L 593.0831228330361 113.16345865970217 L 592.8584432800408 113.21971207695618 L 592.6325305878936 113.27494702379899 L 592.4054073476757 113.32915797678191 L 592.1770962715216 113.38233951485485 L 591.9476201903489 113.43448631990829 L 591.7170020515741 113.48559317730519 L 591.4852649168195 113.53565497640241 L 591.2524319596049 113.58466671106174 L 591.0185264630322 113.63262348015058 L 590.7835718174562 113.67952048803197 L 590.5475915181456 113.7253530450442 L 590.3106091629337 113.77011656796977 L 590.0726484498585 113.81380658049369 L 589.8337331747931 113.85641871365111 L 589.5938872290659 113.89794870626423 L 589.3531345970714 113.93839240536839 L 589.1114993538724 113.9777457666274 L 588.8690056627918 114.0160048547379 L 588.6256777729966 114.05316584382298 L 588.381540017073 114.0892250178147 L 588.1366168085932 114.12417877082571 L 587.8909326396739 114.15802360750982 L 587.6445120785272 114.19075614341159 L 587.3973797670039 114.2223731053047 L 587.1495604181295 114.25287133151929 L 586.9010788136318 114.28224777225817 L 586.6519598014646 114.31049948990176 L 586.4022282933215 114.3376236593018 L 586.1519092621451 114.36361756806399 L 585.9010277396299 114.38847861681909 L 585.649608813719 114.41220431948295 L 585.3976776260957 114.43479230350509 L 585.1452593696688 114.45624031010593 L 584.8923792860534 114.47654619450265 L 584.6390626630473 114.49570792612376 L 584.3853348321016 114.51372358881206 L 584.131221165788 114.5305913810163 L 583.8767470752614 114.5463096159713 L 583.6219380077188 114.56087672186668 L 583.3668194438545 114.57429124200398 L 583.1114168953125 114.58655183494237 L 582.8557559021344 114.59765727463277 L 582.5998620302071 114.60760645054046 L 582.343760868704 114.61639836775615 L 582.087478027528 114.62403214709545 L 581.8310391347497 114.63050702518677 L 581.5744698340449 114.6358223545477 L 581.3177957821293 114.63997760364975 L 581.0610426461948 114.64297235697146 L 580.8042361013405 114.64480631504 L 580.5474018280073 114.64547929446107 L 580.2905655094083 114.64499122793733 L 580.0337528289614 114.64334216427498 L 579.7769894677206 114.64053226837903 L 579.5203011018081 114.63656182123674 L 579.2637133998464 114.63143121988952 L 579.0072520203921 114.62514097739319 L 578.7509426093694 114.6176917227668 L 578.4948107975058 114.60908420092959 L 578.2388821977689 114.59931927262656 L 577.9831824028056 114.58839791434241 L 577.7277369823821 114.57632121820387 L 577.4725714808278 114.5630903918705 L 577.21771141448 114.54870675841389 L 576.9631822691332 114.53317175618541 L 576.7090094974897 114.51648693867233 L 576.4552185166148 114.4986539743425 L 576.2018347053951 114.47967464647749 L 575.9488834020005 114.45955085299428 L 575.6963899013509 114.43828460625544 L 575.4443794525856 114.41587803286792 L 575.1928772565395 114.3923333734704 L 574.9419084632228 114.36765298250918 L 574.6914981693056 114.3418393280028 L 574.4416714156085 114.3148949912952 L 574.192453184599 114.2868226667976 L 573.9438683978922 114.25762516171906 L 573.6959419137596 114.22730539578573 L 573.4486985246433 114.19586640094897 L 573.2021629546759 114.16331132108203 L 572.9563598572092 114.12964341166581 L 572.711313812348 114.09486603946317 L 572.4670493244923 114.05898268218235 L 572.2235908198878 114.02199692812917 L 571.9809626441819 113.98391247584823 L 571.7391890599898 113.944733133753 L 571.4982942444686 113.90446281974506 L 571.2583022868993 113.86310556082225 L 571.0192371862772 113.82066549267599 L 570.7811228489136 113.77714685927774 L 570.5439830860436 113.73255401245454 L 570.3078416114458 113.68689141145396 L 570.072722039071 113.64016362249802 L 569.8386478806805 113.59237531832667 L 569.6056425434949 113.54353127773052 L 569.3737293278541 113.49363638507293 L 569.142931424886 113.44269562980158 L 568.913271914189 113.39071410594954 L 568.6847737615224 113.33769701162588 L 568.4574598165111 113.28364964849587 L 568.2313528103604 113.22857742125075 L 568.0064753535823 113.17248583706737 L 567.7828499337353 113.1153805050574 L 567.5604989131747 113.05726713570647 L 567.3394445268176 112.99815154030306 L 567.1197088799181 112.93803963035747 L 566.9013139458581 112.8769374170106 L 566.6842815639487 112.81485101043285 L 566.4686334372475 112.75178661921315 L 566.2543911303874 112.68775054973807 L 566.0415760674205 112.6227492055612 L 565.8302095296756 112.55678908676278 L 565.6203126536305 112.48987678929971 L 565.411906428798 112.42201900434601 L 565.2050116956268 112.3532225176236 L 564.9996491434177 112.28349420872384 L 564.7958393082549 112.2128410504195 L 564.5936025709522 112.14127010796754 L 564.3929591550145 112.06878853840256 L 564.1939291246164 111.99540358982111 L 563.9965323825951 111.9211226006569 L 563.8007886684601 111.84595299894696 L 563.60671755642 111.76990230158879 L 563.414338453424 111.69297811358877 L 563.2236705972222 111.6151881273016 L 563.0347330544414 111.53654012166106 L 562.8475447186783 111.45704196140221 L 562.6621243086105 111.3767015962748 L 562.4784903661246 111.2955270602484 L 562.2966612544617 111.21352647070897 L 562.1166551563815 111.13070802764713 L 561.9384900723439 111.04708001283818 L 561.7621838187086 110.96265078901389 L 561.5877540259544 110.8774287990263 L 561.4152181369147 110.79142256500339 L 561.2445934050352 110.70464068749688 L 561.0758968926465 110.61709184462221 L 560.9091454692593 110.52878479119072 L 560.7443558098771 110.43972835783416 L 560.5815443933285 110.34993145012163 L 560.4207275006195 110.2594030476691 L 560.2619212133052 110.16815220324135 L 560.1051414118822 110.0761880418468 L 559.9504037741998 109.98351975982494 L 559.797723773893 109.89015662392677 L 559.6471166788344 109.79610797038806 L 559.4985975496083 109.70138320399579 L 559.3521812380036 109.60599179714767 L 559.2078823855295 109.50994328890488 L 559.0657154219509 109.4132472840382 L 558.9256945638459 109.31591345206758 L 558.7878338131836 109.21795152629505 L 558.6521469559241 109.11937130283158 L 558.51864756064 109.02018263961737 L 558.3873489771596 108.92039545543608 L 558.258264335232 108.82001972892296 L 558.1314065432136 108.71906549756703 L 558.006788286778 108.6175428567073 L 557.8844220276471 108.51546195852325 L 557.7643200023447 108.41283301101961 L 557.6464942209732 108.30966627700563 L 557.5309564660126 108.20597207306875 L 557.4177182911421 108.10176076854292 L 557.306791020085 107.99704278447177 L 557.1981857454757 107.89182859256644 L 557.0919133277514 107.78612871415844 L 556.987984394065 107.67995371914753 L 556.8864093372237 107.57331422494474 L 556.7871983146482 107.4662208954106 L 556.690361247358 107.35868443978885 L 556.5959078189795 107.2507156116354 L 556.5038474747766 107.14232520774314 L 556.4141894207071 107.0335240670621 L 556.3269426225015 106.92432306961568 L 556.2421158047672 106.81473313541265 L 556.159717450115 106.70476522335508 L 556.0797557983118 106.59443033014256 L 556.0022388454563 106.48373948917244 L 555.927174343179 106.37270376943658 L 555.8545697978676 106.26133427441445 L 555.7844324699163 106.14964214096271 L 555.7167693729991 106.03763853820165 L 555.6515872733697 105.92533466639821 L 555.5888926891835 105.81274175584596 L 555.5286918898468 105.69987106574217 L 555.4709908953891 105.58673388306175 L 555.4157954758622 105.47334152142872 L 555.3631111507617 105.35970531998473 L 555.3129431884764 105.24583664225523 L 555.2652966057606 105.1317468750131 L 555.2201761672329 105.01744742714001 L 555.1775863848997 104.90294972848548 L 555.1375315177035 104.78826522872397 L 555.1000155710977 104.67340539620987 L 555.0650422966459 104.55838171683074 L 555.0326151916461 104.44320569285864 L 555.0027374987819 104.3278888418 L 554.9754122057979 104.21244269524384 L 554.9506420452003 104.09687879770858 L 554.9284294939847 103.9812087054877 L 554.9087767733877 103.86544398549403 L 554.891685848665 103.74959621410306 L 554.8771584288947 103.63367697599544 L 554.8651959668068 103.51769786299836 L 554.8557996586375 103.40167047292647 L 554.8489704440098 103.28560640842208 L 554.8447090058394 103.16951727579495 L 554.8430157702666 103.05341468386156" stroke-miterlimit="10" stroke-width="2.990598758" stroke-dasharray=""/></g><g><g/><text fill="black" stroke="none" font-family="sans-serif" font-size="12pt" font-style="normal" font-weight="normal" text-decoration="normal" x="564.0777302500001" y="133.521438666" text-anchor="start" dominant-baseline="alphabetic">SDB</text></g><g><path fill="white" stroke="black" paint-order="fill stroke markers" d=" M 642.8017701960001 104.31912138199999 L 642.8017701960001 67.37643084199999 L 694.169701804 67.37643084199999 L 694.169701804 104.31912138199999" stroke-miterlimit="10" stroke-width="2.990598758" stroke-dasharray=""/><path fill="white" stroke="black" paint-order="fill stroke markers" d=" M 694.169701804 66.0922325518 L 694.1684176164115 66.20833621555636 L 694.1645651820635 66.3244282690431 L 694.1581448861962 66.4404971031516 L 694.1491573708338 66.5565311110952 L 694.1376035347205 66.67251868956978 L 694.1234845332302 66.78844823991415 L 694.1068017782513 66.9043081692699 L 694.0875569380454 67.0200868917406 L 694.0657519370804 67.13577282955055 L 694.0413889558384 67.25135441420231 L 694.0144704305972 67.36682008763378 L 693.9849990531867 67.48215830337381 L 693.9529777707202 67.59735752769696 L 693.9184097852992 67.71240624077679 L 693.8812985536936 67.82729293783784 L 693.8416477869955 67.94200613030618 L 693.7994614502486 68.05653434695814 L 693.7547437620512 68.1708661350675 L 693.7074991941353 68.28499006155073 L 693.6577324709178 68.39889471411026 L 693.6054485690299 68.51256870237577 L 693.5506527168181 68.62600065904317 L 693.4933503938221 68.73917924101131 L 693.4335473302262 68.85209313051632 L 693.3712495062871 68.96473103626333 L 693.3064631517352 69.07708169455563 L 693.2391947451521 69.18913387042103 L 693.1694510133221 69.3008763587353 L 693.0972389305606 69.41229798534273 L 693.0225657180156 69.52338760817354 L 692.945438842946 69.63413411835798 L 692.8658660179751 69.74452644133734 L 692.7838552003192 69.85455353797133 L 692.6994145909916 69.96420440564195 L 692.6125526339829 70.07346807935382 L 692.5232780154164 70.18233363283062 L 692.4315996626796 70.29079017960771 L 692.3375267435313 70.39882687412083 L 692.2410686651851 70.50643291279052 L 692.1422350733684 70.6135975351026 L 692.0410358513581 70.72031002468414 L 691.937481118992 70.82655971037511 L 691.8315812316571 70.93233596729549 L 691.7233467792538 71.03762821790771 L 691.6127885851371 71.14242593307448 L 691.4999177050345 71.2467186331116 L 691.3847454259397 71.35049588883598 L 691.2672832649848 71.45374732260854 L 691.147542968288 71.55646260937192 L 691.0255365097792 71.65863147768304 L 690.9012760900024 71.76024371074024 L 690.7747741348961 71.86128914740488 L 690.6460432945506 71.96175768321748 L 690.5150964419424 72.0616392714082 L 690.3819466716478 72.16092392390144 L 690.2466072985329 72.25960171231469 L 690.1090918564221 72.35766276895136 L 689.9694140967449 72.45509728778748 L 689.8275879871612 72.55189552545237 L 689.6836277101636 72.64804780220294 L 689.5375476616598 72.74354450289161 L 689.3893624495329 72.83837607792793 L 689.2390868921807 72.93253304423341 L 689.0867360170337 73.02600598618986 L 688.9323250590525 73.118785556581 L 688.775869459204 73.21086247752712 L 688.6173848629181 73.30222754141282 L 688.4568871185222 73.39287161180788 L 688.2943922756571 73.48278562438078 L 688.1299165836714 73.5719605878052 L 687.9634764899976 73.66038758465909 L 687.7950886385061 73.74805777231649 L 687.6247698678419 73.83496238383165 L 687.45253720974 73.92109272881588 L 687.2784078873227 74.00644019430642 L 687.1023993133773 74.09099624562788 L 686.9245290886142 74.17475242724555 L 686.744814999908 74.2577003636111 L 686.5632750185177 74.33983176 L 686.37992729829 74.42113840334106 L 686.1947901738444 74.50161216303769 L 686.0078821587388 74.58124499178099 L 685.819221943619 74.66002892635444 L 685.6288283943494 74.73795608843025 L 685.4367205501263 74.81501868535715 L 685.242917621574 74.89120901093965 L 685.0474389888236 74.9665194462087 L 684.8503041995759 75.0409424601835 L 684.6515329671453 75.11447061062472 L 684.4511451684893 75.18709654477856 L 684.249160842221 75.25881300011211 L 684.0456001866047 75.32961280503964 L 683.8404835575362 75.39948887963963 L 683.6338314665074 75.46843423636287 L 683.4256645785555 75.53644198073111 L 683.2160037101957 75.60350531202661 L 683.0048698273398 75.66961752397214 L 682.7922840432005 75.73477200540155 L 682.5782676161791 75.79896224092104 L 682.3628419477398 75.86218181156053 L 682.1460285802698 75.92442439541566 L 681.9278491949253 75.98568376827987 L 681.7083256094631 76.04595380426694 L 681.4874797760589 76.10522847642352 L 681.2653337791116 76.16350185733178 L 681.0419098330361 76.22076811970217 L 680.8172302800408 76.27702153695618 L 680.5913175878936 76.33225648379899 L 680.3641943476757 76.38646743678191 L 680.1358832715216 76.43964897485485 L 679.9064071903489 76.49179577990829 L 679.6757890515742 76.54290263730519 L 679.4440519168195 76.59296443640241 L 679.2112189596049 76.64197617106174 L 678.9773134630323 76.68993294015058 L 678.7423588174562 76.73682994803197 L 678.5063785181457 76.7826625050442 L 678.2693961629337 76.82742602796976 L 678.0314354498586 76.87111604049369 L 677.7925201747931 76.91372817365111 L 677.5526742290659 76.95525816626423 L 677.3119215970714 76.99570186536839 L 677.0702863538725 77.03505522662739 L 676.8277926627918 77.0733143147379 L 676.5844647729966 77.11047530382298 L 676.340327017073 77.1465344778147 L 676.0954038085932 77.1814882308257 L 675.8497196396739 77.21533306750982 L 675.6032990785272 77.24806560341159 L 675.356166767004 77.2796825653047 L 675.1083474181295 77.31018079151929 L 674.8598658136318 77.33955723225817 L 674.6107468014646 77.36780894990176 L 674.3610152933215 77.3949331193018 L 674.1106962621451 77.42092702806399 L 673.8598147396299 77.44578807681908 L 673.6083958137191 77.46951377948295 L 673.3564646260958 77.49210176350509 L 673.1040463696688 77.51354977010593 L 672.8511662860534 77.53385565450264 L 672.5978496630473 77.55301738612376 L 672.3441218321017 77.57103304881205 L 672.090008165788 77.58790084101629 L 671.8355340752614 77.6036190759713 L 671.5807250077188 77.61818618186668 L 671.3256064438546 77.63160070200398 L 671.0702038953125 77.64386129494237 L 670.8145429021345 77.65496673463277 L 670.5586490302071 77.66491591054046 L 670.302547868704 77.67370782775615 L 670.0462650275281 77.68134160709545 L 669.7898261347498 77.68781648518677 L 669.5332568340449 77.6931318145477 L 669.2765827821294 77.69728706364975 L 669.0198296461948 77.70028181697145 L 668.7630231013405 77.70211577504 L 668.5061888280073 77.70278875446107 L 668.2493525094084 77.70230068793732 L 667.9925398289614 77.70065162427498 L 667.7357764677206 77.69784172837903 L 667.4790881018081 77.69387128123674 L 667.2225003998465 77.68874067988952 L 666.9660390203921 77.68245043739319 L 666.7097296093694 77.6750011827668 L 666.4535977975058 77.66639366092959 L 666.197669197769 77.65662873262656 L 665.9419694028056 77.64570737434241 L 665.6865239823821 77.63363067820387 L 665.4313584808278 77.6203998518705 L 665.1764984144801 77.60601621841388 L 664.9219692691332 77.59048121618541 L 664.6677964974897 77.57379639867233 L 664.4140055166148 77.5559634343425 L 664.1606217053951 77.53698410647749 L 663.9076704020006 77.51686031299428 L 663.655176901351 77.49559406625544 L 663.4031664525857 77.47318749286792 L 663.1516642565396 77.44964283347039 L 662.9006954632229 77.42496244250918 L 662.6502851693057 77.3991487880028 L 662.4004584156086 77.3722044512952 L 662.151240184599 77.3441321267976 L 661.9026553978922 77.31493462171906 L 661.6547289137596 77.28461485578573 L 661.4074855246433 77.25317586094897 L 661.160949954676 77.22062078108203 L 660.9151468572093 77.18695287166581 L 660.670100812348 77.15217549946317 L 660.4258363244924 77.11629214218235 L 660.1823778198878 77.07930638812917 L 659.9397496441819 77.04122193584823 L 659.6979760599899 77.002042593753 L 659.4570812444687 76.96177227974506 L 659.2170892868993 76.92041502082225 L 658.9780241862773 76.87797495267598 L 658.7399098489136 76.83445631927773 L 658.5027700860436 76.78986347245454 L 658.2666286114459 76.74420087145396 L 658.031509039071 76.69747308249802 L 657.7974348806805 76.64968477832667 L 657.564429543495 76.60084073773052 L 657.3325163278541 76.55094584507293 L 657.101718424886 76.50000508980158 L 656.872058914189 76.44802356594954 L 656.6435607615224 76.39500647162588 L 656.4162468165111 76.34095910849587 L 656.1901398103604 76.28588688125075 L 655.9652623535824 76.22979529706737 L 655.7416369337353 76.1726899650574 L 655.5192859131747 76.11457659570647 L 655.2982315268176 76.05546100030305 L 655.0784958799181 75.99534909035746 L 654.8601009458581 75.9342468770106 L 654.6430685639488 75.87216047043285 L 654.4274204372475 75.80909607921315 L 654.2131781303874 75.74506000973807 L 654.0003630674205 75.6800586655612 L 653.7889965296756 75.61409854676278 L 653.5790996536306 75.54718624929971 L 653.3706934287981 75.47932846434601 L 653.1637986956268 75.4105319776236 L 652.9584361434178 75.34080366872384 L 652.754626308255 75.2701505104195 L 652.5523895709522 75.19857956796754 L 652.3517461550146 75.12609799840256 L 652.1527161246164 75.05271304982111 L 651.9553193825951 74.9784320606569 L 651.7595756684601 74.90326245894695 L 651.56550455642 74.82721176158879 L 651.373125453424 74.75028757358876 L 651.1824575972222 74.67249758730159 L 650.9935200544414 74.59384958166106 L 650.8063317186783 74.51435142140221 L 650.6209113086105 74.4340110562748 L 650.4372773661246 74.3528365202484 L 650.2554482544617 74.27083593070897 L 650.0754421563815 74.18801748764713 L 649.897277072344 74.10438947283818 L 649.7209708187087 74.01996024901389 L 649.5465410259544 73.9347382590263 L 649.3740051369148 73.84873202500339 L 649.2033804050352 73.76195014749688 L 649.0346838926465 73.67440130462221 L 648.8679324692594 73.58609425119072 L 648.7031428098771 73.49703781783415 L 648.5403313933285 73.40724091012163 L 648.3795145006195 73.3167125076691 L 648.2207082133052 73.22546166324135 L 648.0639284118822 73.1334975018468 L 647.9091907741998 73.04082921982494 L 647.7565107738931 72.94746608392677 L 647.6059036788345 72.85341743038806 L 647.4573845496084 72.75869266399579 L 647.3109682380036 72.66330125714767 L 647.1666693855295 72.56725274890488 L 647.024502421951 72.4705567440382 L 646.884481563846 72.37322291206758 L 646.7466208131837 72.27526098629505 L 646.6109339559241 72.17668076283158 L 646.4774345606401 72.07749209961737 L 646.3461359771596 71.97770491543608 L 646.217051335232 71.87732918892296 L 646.0901935432137 71.77637495756703 L 645.9655752867781 71.6748523167073 L 645.8432090276472 71.57277141852325 L 645.7231070023447 71.47014247101961 L 645.6052812209732 71.36697573700563 L 645.4897434660127 71.26328153306875 L 645.3765052911422 71.15907022854292 L 645.2655780200851 71.05435224447177 L 645.1569727454757 70.94913805256644 L 645.0507003277514 70.84343817415844 L 644.9467713940651 70.73726317914753 L 644.8451963372237 70.63062368494474 L 644.7459853146482 70.5235303554106 L 644.6491482473581 70.41599389978884 L 644.5546948189796 70.3080250716354 L 644.4626344747767 70.19963466774314 L 644.3729764207071 70.0908335270621 L 644.2857296225015 69.98163252961568 L 644.2009028047672 69.87204259541265 L 644.118504450115 69.76207468335508 L 644.0385427983118 69.65173979014256 L 643.9610258454563 69.54104894917243 L 643.885961343179 69.43001322943658 L 643.8133567978676 69.31864373441445 L 643.7432194699163 69.20695160096271 L 643.6755563729992 69.09494799820165 L 643.6103742733698 68.98264412639821 L 643.5476796891835 68.87005121584596 L 643.4874788898468 68.75718052574217 L 643.4297778953892 68.64404334306175 L 643.3745824758622 68.53065098142872 L 643.3218981507617 68.41701477998473 L 643.2717301884765 68.30314610225523 L 643.2240836057606 68.1890563350131 L 643.178963167233 68.07475688714001 L 643.1363733848997 67.96025918848548 L 643.0963185177035 67.84557468872397 L 643.0588025710978 67.73071485620987 L 643.0238292966459 67.61569117683074 L 642.9914021916461 67.50051515285864 L 642.961524498782 67.3851983018 L 642.9341992057979 67.26975215524384 L 642.9094290452003 67.15418825770858 L 642.8872164939847 67.0385181654877 L 642.8675637733877 66.92275344549402 L 642.850472848665 66.80690567410306 L 642.8359454288948 66.69098643599544 L 642.8239829668069 66.57500732299836 L 642.8145866586375 66.45897993292647 L 642.8077574440098 66.34291586842208 L 642.8034960058394 66.22682673579494 L 642.8018027702666 66.11072414386156 L 642.8026779066136 65.99461970278438 L 642.8061213273675 65.87852502291076 L 642.812132688189 65.76245171361194 L 642.8207113879471 65.64641138212212 L 642.8318565687789 65.53041563237775 L 642.8455671161757 65.41447606385715 L 642.8618416590942 65.29860427042055 L 642.8806785700937 65.18281183915073 L 642.9020759654985 65.06711034919432 L 642.9260317055872 64.95151137060391 L 642.9525433948057 64.83602646318103 L 642.981608382007 64.72066717532017 L 643.0132237607169 64.60544504285399 L 643.0473863694236 64.49037158789972 L 643.0840927918948 64.37545831770696 L 643.123339357519 64.26071672350696 L 643.165122141672 64.14615827936355 L 643.2094369661104 64.03179444102564 L 643.2562793993887 63.917636644781794 L 643.3056447573026 63.80369630631649 L 643.3575281033575 63.68998481956863 L 643.4119242492619 63.57651355559212 L 643.4688277554466 63.46329386141881 L 643.5282329316084 63.35033705892376 L 643.5901338372793 63.237654443693096 L 643.65452428242 63.125257283894435 L 643.7213978280399 63.0131568191501 L 643.7907477868403 62.90136425941313 L 643.8625672238827 62.78989078384635 L 643.9368489572836 62.67874753970443 L 644.0135855589314 62.56794564121916 L 644.09276935523 62.45749616848805 L 644.1743924278655 62.34741016636633 L 644.2584466145989 62.23769864336248 L 644.3449235100816 62.12837257053737 L 644.4338144666959 62.01944288040719 L 644.5251105954203 61.91092046585016 L 644.6188027667181 61.80281617901732 L 644.7148816114502 61.69514083024725 L 644.8133375218122 61.587905186985104 L 644.914160652295 61.48111997270585 L 645.0173409206698 61.37479586584192 L 645.1228680089954 61.2689434987154 L 645.2307313646512 61.16357345647479 L 645.3409202013914 61.05869627603652 L 645.4534235004243 60.954322445031224 L 645.5682300115135 60.85046240075503 L 645.6853282541038 60.74712652912581 L 645.8047065184684 60.644325163644616 L 645.9263528668803 60.54206858436233 L 646.050255134806 60.440367016851674 L 646.1764009321222 60.339230631184634 L 646.3047776443541 60.2386695409155 L 646.4353724339375 60.13869380206951 L 646.5681722415021 60.03931341213722 L 646.7031637871781 59.94053830907482 L 646.8403335719233 59.84237837031029 L 646.9796678788737 59.74484341175572 L 647.1211527747143 59.64794318682568 L 647.2647741110738 59.55168738546191 L 647.4105175259381 59.45608563316434 L 647.5583684450871 59.361147490028536 L 647.7083120835523 59.266882449789684 L 647.8603334470946 59.173299938873264 L 648.0144173337044 59.08040931545237 L 648.1705483351215 58.988219868511955 L 648.3287108383759 58.89674081691987 L 648.4888890273488 58.805981308505054 L 648.6510668843551 58.715950419142715 L 648.8152281917442 58.62665715184676 L 648.9813565335219 58.5381104358695 L 649.1494352969928 58.450319125808754 L 649.3194476744204 58.36329200072237 L 649.4913766647087 58.277037763250334 L 649.665205075102 58.19156503874451 L 649.8409155229041 58.10688237440612 L 650.0184904372165 58.022998238431036 L 650.1979120606959 57.93992101916295 L 650.3791624513295 57.85765902425456 L 650.5622234842291 57.776220479836795 L 650.7470768534441 57.695613529696246 L 650.9337040737917 57.61584623446075 L 651.1220864827052 57.53692657079335 L 651.3122052421007 57.45886243059466 L 651.5040413402609 57.38166162021363 L 651.6975755937356 57.30533185966698 L 651.8927886492609 57.229880781867145 L 652.0896609856937 57.155315931859036 L 652.2881729159648 57.08164476606552 L 652.4883045890463 57.008874651541774 L 652.6900359919376 56.93701286523862 L 652.8933469516669 56.866066593274795 L 653.0982171373073 56.79604293021838 L 653.304626062011 56.726948878377314 L 653.5125530850578 56.658791347099225 L 653.7219774139184 56.591577152080426 L 653.9328781063344 56.525313014684414 L 654.1452340724127 56.4600055612697 L 654.3590240767331 56.39566132252722 L 654.5742267404738 56.332286732827214 L 654.7908205435475 56.26988812957585 L 655.0087838267544 56.20847175258143 L 655.2280947939479 56.14804374343051 L 655.448731514214 56.08861014487363 L 655.6706719240647 56.03017690022111 L 655.8938938296436 55.972749852748734 L 656.1183749089464 55.91633474511339 L 656.3440927140523 55.86093721877882 L 656.5710246733687 55.80656281345151 L 656.7991480938889 55.753216966526665 L 657.028440163461 55.70090501254454 L 657.2588779530689 55.649632182656916 L 657.4904384191259 55.59940360410408 L 657.7230984057783 55.550224299702016 L 657.9568346472212 55.50209918734018 L 658.1916237700253 55.45503307948971 L 658.4274422954742 55.40903068272217 L 658.6642666419115 55.3640965972389 L 658.9020731271 55.320235316411 L 659.1408379705896 55.27745122633 L 659.3805372960948 55.23574860536927 L 659.6211471338826 55.19513162375613 L 659.8626434231699 55.15560434315492 L 660.105002014529 55.11717071626074 L 660.3481986723027 55.07983458640426 L 660.592209077028 55.04359968716735 L 660.8370088278676 55.00846964200974 L 661.0825734450506 54.974447963906684 L 661.3288783723197 54.941538054997615 L 661.5758989793876 54.90974320624601 L 661.8236105643994 54.87906659711026 L 662.0719883564029 54.849511295225696 L 662.321007517826 54.82108025609789 L 662.5706431469602 54.79377632280706 L 662.8208702804503 54.76760222572378 L 663.0716638957919 54.742560582235946 L 663.322998913832 54.71865389648704 L 663.5748502012784 54.695884559125716 L 663.8271925732124 54.674254847066734 L 664.080000795607 54.65376692326327 L 664.3332495878506 54.63442283649064 L 664.586913625275 54.616224521141405 L 664.8409675416879 54.599173797031916 L 665.0953859319092 54.583272369220396 L 665.3501433543121 54.56852182783636 L 665.6052143333666 54.55492364792166 L 665.8605733621873 54.54247918928296 L 666.1161949050842 54.53118969635575 L 666.372053400116 54.52105629807991 L 666.6281232616464 54.51208000778683 L 666.8843788829025 54.504261723098054 L 667.1407946385359 54.497602225835536 L 667.3973448871848 54.49210218194346 L 667.6540039740379 54.487762141421626 L 667.9107462334005 54.484582538270466 L 668.1675459912605 54.482563690447655 L 668.4243775678563 54.481705799836284 L 668.6812152802441 54.4820089522247 L 668.938033444867 54.48347311729792 L 669.1948063801221 54.486098148640664 L 669.4515084089302 54.48988378375197 L 669.7081138613022 54.49482964407149 L 669.9645970769067 54.50093523501731 L 670.2209324076358 54.50819994603543 L 670.4770942201702 54.5166230506608 L 670.7330568985421 54.52620370658997 L 670.9887948466969 54.53694095576534 L 671.2442824910528 54.54883372447093 L 671.4994942830584 54.56188082343979 L 671.7544047017473 54.5760809479729 L 672.0089882562897 54.591432678069616 L 672.2632194885426 54.607934478569746 L 672.5170729755946 54.62558469930698 L 672.7705233323085 54.644381575273954 L 673.0235452138596 54.66432322679874 L 673.276113318271 54.685407659732796 L 673.5282023889425 54.70763276565041 L 673.7797872171772 54.7309963220595 L 674.0308426447017 54.75549599262389 L 674.2813435661827 54.78112932739696 L 674.5312649317368 54.80789376306658 L 674.7805817494357 54.83578662321149 L 675.0292690878052 54.86480511856891 L 675.2773020783189 54.89494634731351 L 675.5246559178845 54.9262072953475 L 675.771305871324 54.95858483660216 L 676.0172272738475 54.99207573335032 L 676.26239553352 55.02667663653023 L 676.5067861337197 55.0623840860804 L 676.7503746355901 55.09919451128564 L 676.9931366804842 55.13710423113409 L 677.2350479923997 55.17610945468536 L 677.476084380407 55.2162062814496 L 677.7162217410682 55.25739070177756 L 677.9554360608474 55.29965859726151 L 678.1937034185119 55.34300574114714 L 678.4309999875244 55.38742779875617 L 678.6673020384259 55.43292032791987 L 678.9025859412081 55.47947877942322 L 679.136828167677 55.527098497459875 L 679.370005293805 55.57577472009772 L 679.6020940020737 55.62550257975505 L 679.8330710838059 55.67627710368733 L 680.0629134414856 55.728093214484495 L 680.291598091069 55.78094573057864 L 680.5191021642813 55.83482936676219 L 680.7454029109051 55.88973873471644 L 680.970477701054 55.945668343550345 L 681.1943040274369 56.002612600349636 L 681.4168595076075 56.06056581073608 L 681.6381218862031 56.11952217943694 L 681.8580690371704 56.179475810864474 L 682.0766789659775 56.24042070970549 L 682.2939298118139 56.30235078152091 L 682.5097998497757 56.36525983335514 L 682.7242674930394 56.42914157435544 L 682.9373112950191 56.49398961640093 L 683.1489099515122 56.55979747474145 L 683.3590423028296 56.62655856864601 L 683.5676873359109 56.69426622206085 L 683.7748241864269 56.76291366427705 L 683.9804321408652 56.83249403060759 L 684.1844906386016 56.903000363073836 L 684.3869792739564 56.97442561110128 L 684.5878777982348 57.04676263222465 L 684.7871661217517 57.120004192802114 L 684.984824315841 57.19414296873864 L 685.1808326148479 57.26917154621842 L 685.3751714181058 57.34508242244624 L 685.5678212918964 57.421868006397716 L 685.7587629713928 57.49952061957846 L 685.9479773625862 57.57803249679186 L 686.1354455441951 57.657395786915615 L 686.3211487695578 57.73760255368685 L 686.5050684685062 57.81864477649573 L 686.6871862492239 57.9005143511875 L 686.8674839000845 57.983203090872934 L 687.0459433914731 58.06670272674695 L 687.2225468775894 58.15100490891555 L 687.3972766982317 58.23610120723078 L 687.570115380564 58.32198311213371 L 687.7410456408618 58.40864203550541 L 687.9100503862414 58.49606931152578 L 688.0771127163694 58.58425619754006 L 688.2422159251518 58.67319387493313 L 688.4053435024053 58.76287345001139 L 688.5664791355083 58.853285954892044 L 688.7256067110316 58.944422348399954 L 688.8827103163503 59.03627351697172 L 689.0377742412347 59.12883027556701 L 689.1907829794218 59.222083368587114 L 689.3417212301649 59.31602347080043 L 689.4905738997651 59.41064118827504 L 689.6373261030792 59.50592705931801 L 689.7819631650092 59.60187155542167 L 689.9244706219696 59.698465082216345 L 690.0648342233333 59.79569798042986 L 690.2030399328572 59.89356052685341 L 690.3390739300855 59.99204293531392 L 690.4729226117319 60.0911353576526 L 690.6045725930396 60.1908278847098 L 690.7340107091204 60.29111054731588 L 690.8612240162705 60.39197331728817 L 690.9861997932651 60.4934061084337 L 691.1089255426307 60.5953987775579 L 691.2293889918946 60.69794112547884 L 691.3475780948123 60.80102289804719 L 691.463481032572 60.90463378717158 L 691.5770862149765 61.00876343184945 L 691.6883822816022 61.113401419203115 L 691.7973581029353 61.218537285521016 L 691.9040027814843 61.32416051730415 L 692.0083056528704 61.43026055231736 L 692.1102562868932 61.53682678064554 L 692.2098444885744 61.643848545754686 L 692.3070602991767 61.75131514555746 L 692.4018939972002 61.85921583348345 L 692.494336099354 61.96753981955375 L 692.584377361505 62.07627627146005 L 692.6720087796019 62.18541431564777 L 692.7572215905761 62.29494303840343 L 692.8400072732173 62.404851486946036 L 692.9203575490264 62.515128670522316 L 692.9982643830427 62.62576356150581 L 693.0737199846478 62.736745096499625 L 693.1467168083443 62.84806217744274 L 693.2172475545108 62.959703672719826 L 693.2853051701313 63.07165841827438 L 693.350882849501 63.18391521872516 L 693.4139740349067 63.29646284848565 L 693.4745724172823 63.409290052886675 L 693.5326719368402 63.52238554930181 L 693.5882667836768 63.63573802827567 L 693.6413513983537 63.7493361546548 L 693.6919204724536 63.86316856872124 L 693.7399689491115 63.97722388732845 L 693.7854920235195 64.09149070503959 L 693.8284851434083 64.20595759526815 L 693.8689440095017 64.32061311142046 L 693.9068645759467 64.43544578804045 L 693.9422430507182 64.55044414195618 L 693.9750758959984 64.66559667342807 L 694.00535982853 64.78089186729893 L 694.0330918199451 64.89631819414548 L 694.0582690970675 65.0118641114312 L 694.0808891421907 65.12751806466063 L 694.1009496933287 65.24326848853487 L 694.1184487444435 65.35910380810796 L 694.1333845456444 65.47501243994449 L 694.1457556033636 65.59098279327785 L 694.1555606805058 65.70700327116936 L 694.1627987965713 65.8230622716679 L 694.1674692277547 65.93914818897015 L 694.1695715070167 66.05524941458111 M 694.169701804 103.0349230918 L 694.1684176164115 103.15102675555636 L 694.1645651820635 103.2671188090431 L 694.1581448861962 103.3831876431516 L 694.1491573708338 103.4992216510952 L 694.1376035347205 103.61520922956979 L 694.1234845332302 103.73113877991415 L 694.1068017782513 103.8469987092699 L 694.0875569380454 103.9627774317406 L 694.0657519370804 104.07846336955055 L 694.0413889558384 104.19404495420231 L 694.0144704305972 104.30951062763378 L 693.9849990531867 104.42484884337381 L 693.9529777707202 104.54004806769696 L 693.9184097852992 104.65509678077679 L 693.8812985536936 104.76998347783784 L 693.8416477869955 104.88469667030618 L 693.7994614502486 104.99922488695815 L 693.7547437620512 105.1135566750675 L 693.7074991941353 105.22768060155073 L 693.6577324709178 105.34158525411026 L 693.6054485690299 105.45525924237577 L 693.5506527168181 105.56869119904317 L 693.4933503938221 105.68186978101132 L 693.4335473302262 105.79478367051632 L 693.3712495062871 105.90742157626333 L 693.3064631517352 106.01977223455563 L 693.2391947451521 106.13182441042103 L 693.1694510133221 106.2435668987353 L 693.0972389305606 106.35498852534273 L 693.0225657180156 106.46607814817354 L 692.945438842946 106.57682465835798 L 692.8658660179751 106.68721698133734 L 692.7838552003192 106.79724407797133 L 692.6994145909916 106.90689494564195 L 692.6125526339829 107.01615861935382 L 692.5232780154164 107.12502417283062 L 692.4315996626796 107.23348071960771 L 692.3375267435313 107.34151741412083 L 692.2410686651851 107.44912345279052 L 692.1422350733684 107.5562880751026 L 692.0410358513581 107.66300056468414 L 691.937481118992 107.76925025037511 L 691.8315812316571 107.87502650729549 L 691.7233467792538 107.98031875790771 L 691.6127885851371 108.08511647307448 L 691.4999177050345 108.1894091731116 L 691.3847454259397 108.29318642883598 L 691.2672832649848 108.39643786260854 L 691.147542968288 108.49915314937192 L 691.0255365097792 108.60132201768305 L 690.9012760900024 108.70293425074024 L 690.7747741348961 108.80397968740488 L 690.6460432945506 108.90444822321749 L 690.5150964419424 109.0043298114082 L 690.3819466716478 109.10361446390144 L 690.2466072985329 109.20229225231469 L 690.1090918564221 109.30035330895136 L 689.9694140967449 109.39778782778748 L 689.8275879871612 109.49458606545237 L 689.6836277101636 109.59073834220294 L 689.5375476616598 109.68623504289161 L 689.3893624495329 109.78106661792793 L 689.2390868921807 109.87522358423341 L 689.0867360170337 109.96869652618986 L 688.9323250590525 110.061476096581 L 688.775869459204 110.15355301752712 L 688.6173848629181 110.24491808141282 L 688.4568871185222 110.33556215180788 L 688.2943922756571 110.42547616438078 L 688.1299165836714 110.5146511278052 L 687.9634764899976 110.60307812465909 L 687.7950886385061 110.69074831231649 L 687.6247698678419 110.77765292383165 L 687.45253720974 110.86378326881588 L 687.2784078873227 110.94913073430642 L 687.1023993133773 111.03368678562788 L 686.9245290886142 111.11744296724555 L 686.744814999908 111.2003909036111 L 686.5632750185177 111.2825223 L 686.37992729829 111.36382894334106 L 686.1947901738444 111.44430270303769 L 686.0078821587388 111.52393553178099 L 685.819221943619 111.60271946635444 L 685.6288283943494 111.68064662843025 L 685.4367205501263 111.75770922535715 L 685.242917621574 111.83389955093965 L 685.0474389888236 111.9092099862087 L 684.8503041995759 111.9836330001835 L 684.6515329671453 112.05716115062472 L 684.4511451684893 112.12978708477856 L 684.249160842221 112.20150354011211 L 684.0456001866047 112.27230334503965 L 683.8404835575362 112.34217941963963 L 683.6338314665074 112.41112477636287 L 683.4256645785555 112.47913252073111 L 683.2160037101957 112.54619585202661 L 683.0048698273398 112.61230806397214 L 682.7922840432005 112.67746254540155 L 682.5782676161791 112.74165278092104 L 682.3628419477398 112.80487235156053 L 682.1460285802698 112.86711493541566 L 681.9278491949253 112.92837430827987 L 681.7083256094631 112.98864434426694 L 681.4874797760589 113.04791901642352 L 681.2653337791116 113.10619239733178 L 681.0419098330361 113.16345865970217 L 680.8172302800408 113.21971207695618 L 680.5913175878936 113.27494702379899 L 680.3641943476757 113.32915797678191 L 680.1358832715216 113.38233951485485 L 679.9064071903489 113.43448631990829 L 679.6757890515742 113.48559317730519 L 679.4440519168195 113.53565497640241 L 679.2112189596049 113.58466671106174 L 678.9773134630323 113.63262348015058 L 678.7423588174562 113.67952048803197 L 678.5063785181457 113.7253530450442 L 678.2693961629337 113.77011656796977 L 678.0314354498586 113.81380658049369 L 677.7925201747931 113.85641871365111 L 677.5526742290659 113.89794870626423 L 677.3119215970714 113.93839240536839 L 677.0702863538725 113.9777457666274 L 676.8277926627918 114.0160048547379 L 676.5844647729966 114.05316584382298 L 676.340327017073 114.0892250178147 L 676.0954038085932 114.12417877082571 L 675.8497196396739 114.15802360750982 L 675.6032990785272 114.19075614341159 L 675.356166767004 114.2223731053047 L 675.1083474181295 114.25287133151929 L 674.8598658136318 114.28224777225817 L 674.6107468014646 114.31049948990176 L 674.3610152933215 114.3376236593018 L 674.1106962621451 114.36361756806399 L 673.8598147396299 114.38847861681909 L 673.6083958137191 114.41220431948295 L 673.3564646260958 114.43479230350509 L 673.1040463696688 114.45624031010593 L 672.8511662860534 114.47654619450265 L 672.5978496630473 114.49570792612376 L 672.3441218321017 114.51372358881206 L 672.090008165788 114.5305913810163 L 671.8355340752614 114.5463096159713 L 671.5807250077188 114.56087672186668 L 671.3256064438546 114.57429124200398 L 671.0702038953125 114.58655183494237 L 670.8145429021345 114.59765727463277 L 670.5586490302071 114.60760645054046 L 670.302547868704 114.61639836775615 L 670.0462650275281 114.62403214709545 L 669.7898261347498 114.63050702518677 L 669.5332568340449 114.6358223545477 L 669.2765827821294 114.63997760364975 L 669.0198296461948 114.64297235697146 L 668.7630231013405 114.64480631504 L 668.5061888280073 114.64547929446107 L 668.2493525094084 114.64499122793733 L 667.9925398289614 114.64334216427498 L 667.7357764677206 114.64053226837903 L 667.4790881018081 114.63656182123674 L 667.2225003998465 114.63143121988952 L 666.9660390203921 114.62514097739319 L 666.7097296093694 114.6176917227668 L 666.4535977975058 114.60908420092959 L 666.197669197769 114.59931927262656 L 665.9419694028056 114.58839791434241 L 665.6865239823821 114.57632121820387 L 665.4313584808278 114.5630903918705 L 665.1764984144801 114.54870675841389 L 664.9219692691332 114.53317175618541 L 664.6677964974897 114.51648693867233 L 664.4140055166148 114.4986539743425 L 664.1606217053951 114.47967464647749 L 663.9076704020006 114.45955085299428 L 663.655176901351 114.43828460625544 L 663.4031664525857 114.41587803286792 L 663.1516642565396 114.3923333734704 L 662.9006954632229 114.36765298250918 L 662.6502851693057 114.3418393280028 L 662.4004584156086 114.3148949912952 L 662.151240184599 114.2868226667976 L 661.9026553978922 114.25762516171906 L 661.6547289137596 114.22730539578573 L 661.4074855246433 114.19586640094897 L 661.160949954676 114.16331132108203 L 660.9151468572093 114.12964341166581 L 660.670100812348 114.09486603946317 L 660.4258363244924 114.05898268218235 L 660.1823778198878 114.02199692812917 L 659.9397496441819 113.98391247584823 L 659.6979760599899 113.944733133753 L 659.4570812444687 113.90446281974506 L 659.2170892868993 113.86310556082225 L 658.9780241862773 113.82066549267599 L 658.7399098489136 113.77714685927774 L 658.5027700860436 113.73255401245454 L 658.2666286114459 113.68689141145396 L 658.031509039071 113.64016362249802 L 657.7974348806805 113.59237531832667 L 657.564429543495 113.54353127773052 L 657.3325163278541 113.49363638507293 L 657.101718424886 113.44269562980158 L 656.872058914189 113.39071410594954 L 656.6435607615224 113.33769701162588 L 656.4162468165111 113.28364964849587 L 656.1901398103604 113.22857742125075 L 655.9652623535824 113.17248583706737 L 655.7416369337353 113.1153805050574 L 655.5192859131747 113.05726713570647 L 655.2982315268176 112.99815154030306 L 655.0784958799181 112.93803963035747 L 654.8601009458581 112.8769374170106 L 654.6430685639488 112.81485101043285 L 654.4274204372475 112.75178661921315 L 654.2131781303874 112.68775054973807 L 654.0003630674205 112.6227492055612 L 653.7889965296756 112.55678908676278 L 653.5790996536306 112.48987678929971 L 653.3706934287981 112.42201900434601 L 653.1637986956268 112.3532225176236 L 652.9584361434178 112.28349420872384 L 652.754626308255 112.2128410504195 L 652.5523895709522 112.14127010796754 L 652.3517461550146 112.06878853840256 L 652.1527161246164 111.99540358982111 L 651.9553193825951 111.9211226006569 L 651.7595756684601 111.84595299894696 L 651.56550455642 111.76990230158879 L 651.373125453424 111.69297811358877 L 651.1824575972222 111.6151881273016 L 650.9935200544414 111.53654012166106 L 650.8063317186783 111.45704196140221 L 650.6209113086105 111.3767015962748 L 650.4372773661246 111.2955270602484 L 650.2554482544617 111.21352647070897 L 650.0754421563815 111.13070802764713 L 649.897277072344 111.04708001283818 L 649.7209708187087 110.96265078901389 L 649.5465410259544 110.8774287990263 L 649.3740051369148 110.79142256500339 L 649.2033804050352 110.70464068749688 L 649.0346838926465 110.61709184462221 L 648.8679324692594 110.52878479119072 L 648.7031428098771 110.43972835783416 L 648.5403313933285 110.34993145012163 L 648.3795145006195 110.2594030476691 L 648.2207082133052 110.16815220324135 L 648.0639284118822 110.0761880418468 L 647.9091907741998 109.98351975982494 L 647.7565107738931 109.89015662392677 L 647.6059036788345 109.79610797038806 L 647.4573845496084 109.70138320399579 L 647.3109682380036 109.60599179714767 L 647.1666693855295 109.50994328890488 L 647.024502421951 109.4132472840382 L 646.884481563846 109.31591345206758 L 646.7466208131837 109.21795152629505 L 646.6109339559241 109.11937130283158 L 646.4774345606401 109.02018263961737 L 646.3461359771596 108.92039545543608 L 646.217051335232 108.82001972892296 L 646.0901935432137 108.71906549756703 L 645.9655752867781 108.6175428567073 L 645.8432090276472 108.51546195852325 L 645.7231070023447 108.41283301101961 L 645.6052812209732 108.30966627700563 L 645.4897434660127 108.20597207306875 L 645.3765052911422 108.10176076854292 L 645.2655780200851 107.99704278447177 L 645.1569727454757 107.89182859256644 L 645.0507003277514 107.78612871415844 L 644.9467713940651 107.67995371914753 L 644.8451963372237 107.57331422494474 L 644.7459853146482 107.4662208954106 L 644.6491482473581 107.35868443978885 L 644.5546948189796 107.2507156116354 L 644.4626344747767 107.14232520774314 L 644.3729764207071 107.0335240670621 L 644.2857296225015 106.92432306961568 L 644.2009028047672 106.81473313541265 L 644.118504450115 106.70476522335508 L 644.0385427983118 106.59443033014256 L 643.9610258454563 106.48373948917244 L 643.885961343179 106.37270376943658 L 643.8133567978676 106.26133427441445 L 643.7432194699163 106.14964214096271 L 643.6755563729992 106.03763853820165 L 643.6103742733698 105.92533466639821 L 643.5476796891835 105.81274175584596 L 643.4874788898468 105.69987106574217 L 643.4297778953892 105.58673388306175 L 643.3745824758622 105.47334152142872 L 643.3218981507617 105.35970531998473 L 643.2717301884765 105.24583664225523 L 643.2240836057606 105.1317468750131 L 643.178963167233 105.01744742714001 L 643.1363733848997 104.90294972848548 L 643.0963185177035 104.78826522872397 L 643.0588025710978 104.67340539620987 L 643.0238292966459 104.55838171683074 L 642.9914021916461 104.44320569285864 L 642.961524498782 104.3278888418 L 642.9341992057979 104.21244269524384 L 642.9094290452003 104.09687879770858 L 642.8872164939847 103.9812087054877 L 642.8675637733877 103.86544398549403 L 642.850472848665 103.74959621410306 L 642.8359454288948 103.63367697599544 L 642.8239829668069 103.51769786299836 L 642.8145866586375 103.40167047292647 L 642.8077574440098 103.28560640842208 L 642.8034960058394 103.16951727579495 L 642.8018027702666 103.05341468386156" stroke-miterlimit="10" stroke-width="2.990598758" stroke-dasharray=""/></g><g><g/><text fill="black" stroke="none" font-family="sans-serif" font-size="12pt" font-style="normal" font-weight="normal" text-decoration="normal" x="650.7083922500001" y="133.521438666" text-anchor="start" dominant-baseline="alphabetic">RAM</text></g><path fill="none" stroke="none"/><g><path fill="lightblue" stroke="black" paint-order="fill stroke markers" d=" M 721.2610082000001 91.301220906 L 850.1773092580002 91.301220906 L 850.1773092580002 138.798965886 L 721.2610082000001 138.798965886 L 721.2610082000001 91.301220906 Z" stroke-miterlimit="10" stroke-width="2.814681184" stroke-dasharray=""/></g><g><g/><text fill="black" stroke="none" font-family="sans-serif" font-size="12pt" font-style="normal" font-weight="normal" text-decoration="normal" x="740.3480649790001" y="121.207208486" text-anchor="start" dominant-baseline="alphabetic">AudioEngine</text></g></g><g><path fill="white" stroke="black" paint-order="fill stroke markers" d=" M 124.08904796666667 147.594844586 L 141.68080536666668 147.594844586 L 141.68080536666668 460.7281263059999 L 124.08904796666667 460.7281263059999 L 124.08904796666667 147.594844586" stroke-miterlimit="10" stroke-width="1.4659797833333332" stroke-dasharray=""/><path fill="white" stroke="black" paint-order="fill stroke markers" d=" M 776.9232800290001 393.87944818599993 L 794.5150374290001 393.87944818599993 L 794.5150374290001 460.7281263059999 L 776.9232800290001 460.7281263059999 L 776.9232800290001 393.87944818599993" stroke-miterlimit="10" stroke-width="1.4659797833333332" stroke-dasharray=""/><path fill="white" stroke="black" paint-order="fill stroke markers" d=" M 16.890625 460.7281263059999 L 34.4823824 460.7281263059999 L 34.4823824 652.4782819659999 L 16.890625 652.4782819659999 L 16.890625 460.7281263059999" stroke-miterlimit="10" stroke-width="1.4659797833333332" stroke-dasharray=""/><g><g><rect fill="white" stroke="none" x="259.87662454" y="173.982480686" width="72.84783972" height="22.86928462"/></g><text fill="black" stroke="none" font-family="sans-serif" font-size="12pt" font-style="normal" font-weight="normal" text-decoration="normal" x="262.51538815000004" y="189.81506234600002" text-anchor="start" dominant-baseline="alphabetic">initialize()</text></g><g><path fill="none" stroke="black" paint-order="fill stroke markers" d=" M 141.68080536666668 196.851765306 L 447.9883238666667 196.851765306" stroke-miterlimit="10" stroke-width="1.4659797833333332" stroke-dasharray=""/><g transform="translate(450.92028343333334,196.851765306) translate(-450.92028343333334,-196.851765306)"><path fill="black" stroke="none" paint-order="stroke fill markers" d=" M 436.2604856 189.52186638933333 L 450.92028343333334 196.851765306 L 436.2604856 204.18166422266668 Z"/></g></g><g><g><rect fill="white" stroke="none" x="471.73719635666663" y="223.23940140599998" width="87.97283972" height="22.86928462"/></g><text fill="black" stroke="none" font-family="sans-serif" font-size="12pt" font-style="normal" font-weight="normal" text-decoration="normal" x="474.37595996666664" y="239.071983066" text-anchor="start" dominant-baseline="alphabetic">readBytes()</text></g><g><path fill="none" stroke="black" paint-order="fill stroke markers" d=" M 450.92028343333334 246.108686026 L 577.5949894333334 246.108686026" stroke-miterlimit="10" stroke-width="1.4659797833333332" stroke-dasharray=""/><g transform="translate(580.5269490000001,246.108686026) translate(-580.5269490000001,-246.108686026)"><path fill="black" stroke="none" paint-order="stroke fill markers" d=" M 565.8671511666668 238.7787871093333 L 580.5269490000001 246.108686026 L 565.8671511666668 253.43858494266667 Z"/></g></g><g><g><rect fill="white" stroke="none" x="493.96375885666663" y="272.496322126" width="43.519714719999996" height="22.86928462"/></g><text fill="black" stroke="none" font-family="sans-serif" font-size="12pt" font-style="normal" font-weight="normal" text-decoration="normal" x="496.60252246666664" y="288.328903786" text-anchor="start" dominant-baseline="alphabetic">bytes</text></g><g><path fill="none" stroke="black" paint-order="fill stroke markers" d=" M 580.5269490000001 295.36560674599997 L 453.852243 295.36560674599997" stroke-miterlimit="10" stroke-width="1.4659797833333332" stroke-dasharray="7.0367029599999995"/><g transform="translate(450.92028343333334,295.36560674599997) translate(-450.92028343333334,-295.36560674599997)"><path fill="none" stroke="black" paint-order="fill stroke markers" d=" M 465.5800812666667 288.0357078293333 L 452.3862632166667 295.36560674599997 L 465.5800812666667 302.6955056626666" stroke-miterlimit="10" stroke-width="1.4659797833333332"/></g></g><g><g><rect fill="white" stroke="none" x="539.2790898566667" y="321.753242846" width="40.847839719999996" height="22.86928462"/></g><text fill="black" stroke="none" font-family="sans-serif" font-size="12pt" font-style="normal" font-weight="normal" text-decoration="normal" x="541.9178534666667" y="337.585824506" text-anchor="start" dominant-baseline="alphabetic">store</text></g><g><path fill="none" stroke="black" paint-order="fill stroke markers" d=" M 450.92028343333334 344.62252746599995 L 665.5537764333334 344.62252746599995" stroke-miterlimit="10" stroke-width="1.4659797833333332" stroke-dasharray="7.0367029599999995"/><g transform="translate(668.4857360000001,344.62252746599995) translate(-668.4857360000001,-344.62252746599995)"><path fill="none" stroke="black" paint-order="fill stroke markers" d=" M 653.8259381666668 337.2926285493333 L 667.0197562166668 344.62252746599995 L 653.8259381666668 351.9524263826666" stroke-miterlimit="10" stroke-width="1.4659797833333332"/></g></g><g><g><rect fill="white" stroke="none" x="558.3767681211667" y="371.01016356599996" width="111.09002722" height="22.86928462"/></g><text fill="black" stroke="none" font-family="sans-serif" font-size="12pt" font-style="normal" font-weight="normal" text-decoration="normal" x="561.0155317311667" y="386.842745226" text-anchor="start" dominant-baseline="alphabetic">initialize(bytes)</text></g><g><path fill="none" stroke="black" paint-order="fill stroke markers" d=" M 450.92028343333334 393.87944818599993 L 773.9913204623334 393.87944818599993" stroke-miterlimit="10" stroke-width="1.4659797833333332" stroke-dasharray=""/><g transform="translate(776.9232800290001,393.87944818599993) translate(-776.9232800290001,-393.87944818599993)"><path fill="black" stroke="none" paint-order="stroke fill markers" d=" M 762.2634821956668 386.5495492693333 L 776.9232800290001 393.87944818599993 L 762.2634821956668 401.2093471026666 Z"/></g></g><g><g><rect fill="white" stroke="none" x="815.3319503523335" y="420.26708428599994" width="120.90252722" height="22.86928462"/></g><text fill="black" stroke="none" font-family="sans-serif" font-size="12pt" font-style="normal" font-weight="normal" text-decoration="normal" x="817.9707139623334" y="436.09966594599996" text-anchor="start" dominant-baseline="alphabetic">onAudioReady()</text></g><g><path fill="none" stroke="black" paint-order="fill stroke markers" d=" M 794.5150374290001 443.1363689059999 L 864.8820670290002 443.1363689059999 L 864.8820670290002 460.7281263059999 L 797.4469969956668 460.7281263059999" stroke-miterlimit="10" stroke-width="1.4659797833333332" stroke-dasharray=""/><g transform="translate(794.5150374290001,460.7281263059999) translate(-794.5150374290001,-460.7281263059999)"><path fill="black" stroke="none" paint-order="stroke fill markers" d=" M 809.1748352623334 453.3982273893333 L 794.5150374290001 460.7281263059999 L 809.1748352623334 468.0580252226666 Z"/></g></g><g><g><rect fill="white" stroke="none" x="59.69723467333334" y="487.11576240599993" width="47.972839719999996" height="22.86928462"/></g><text fill="black" stroke="none" font-family="sans-serif" font-size="12pt" font-style="normal" font-weight="normal" text-decoration="normal" x="62.33599828333334" y="502.94834406599995" text-anchor="start" dominant-baseline="alphabetic">shake</text></g><g><path fill="none" stroke="black" paint-order="fill stroke markers" d=" M 34.4823824 509.9850470259999 L 129.9529671 509.9850470259999" stroke-miterlimit="10" stroke-width="1.4659797833333332" stroke-dasharray=""/><g transform="translate(132.88492666666667,509.9850470259999) translate(-132.88492666666667,-509.9850470259999)"><path fill="black" stroke="none" paint-order="stroke fill markers" d=" M 118.22512883333334 502.65514810933325 L 132.88492666666667 509.9850470259999 L 118.22512883333334 517.3149459426666 Z"/></g></g><g><g><rect fill="white" stroke="none" x="158.09977894000002" y="536.3726831259999" width="267.60565222" height="22.86928462"/></g><text fill="black" stroke="none" font-family="sans-serif" font-size="12pt" font-style="normal" font-weight="normal" text-decoration="normal" x="160.73854255000003" y="552.2052647859998" text-anchor="start" dominant-baseline="alphabetic">play(Helpers.coordsToIndex(coords))</text></g><g><path fill="none" stroke="black" paint-order="fill stroke markers" d=" M 132.88492666666667 559.2419677459999 L 447.9883238666667 559.2419677459999" stroke-miterlimit="10" stroke-width="1.4659797833333332" stroke-dasharray=""/><g transform="translate(450.92028343333334,559.2419677459999) translate(-450.92028343333334,-559.2419677459999)"><path fill="black" stroke="none" paint-order="stroke fill markers" d=" M 436.2604856 551.9120688293332 L 450.92028343333334 559.2419677459999 L 436.2604856 566.5718666626666 Z"/></g></g><g><g><rect fill="white" stroke="none" x="576.5520512211668" y="585.6296038459999" width="83.53533972" height="22.86928462"/></g><text fill="black" stroke="none" font-family="sans-serif" font-size="12pt" font-style="normal" font-weight="normal" text-decoration="normal" x="579.1908148311668" y="601.4621855059999" text-anchor="start" dominant-baseline="alphabetic">play(index)</text></g><g><path fill="none" stroke="black" paint-order="fill stroke markers" d=" M 450.92028343333334 608.4988884659999 L 782.7871991623334 608.4988884659999" stroke-miterlimit="10" stroke-width="1.4659797833333332" stroke-dasharray=""/><g transform="translate(785.7191587290001,608.4988884659999) translate(-785.7191587290001,-608.4988884659999)"><path fill="black" stroke="none" paint-order="stroke fill markers" d=" M 771.0593608956668 601.1689895493332 L 785.7191587290001 608.4988884659999 L 771.0593608956668 615.8287873826666 Z"/></g></g></g><g/><g/><g/><g/><g/><g/></g></svg>